<svg width="10" height="358" viewBox="0 0 10 358" fill="none" xmlns="http://www.w3.org/2000/svg">
<path d="M5 121.5C7.76143 121.5 10 119.261 10 116.5C10 113.739 7.76143 111.5 5 111.5M5 121.5V111.5M5 121.5C2.23857 121.5 0 119.261 0 116.5C0 113.739 2.23857 111.5 5 111.5M5 121.5V111.5" fill="#6871F2" stroke="#6871F2" stroke-width="30"/>
<path d="M5 246.5C7.76143 246.5 10 244.261 10 241.5C10 238.739 7.76143 236.5 5 236.5M5 246.5V236.5M5 246.5C2.23857 246.5 0 244.261 0 241.5C0 238.739 2.23857 236.5 5 236.5M5 246.5V236.5" fill="#6871F2" stroke="#6871F2" stroke-width="30"/>
<path d="M6.5 1.5C6.5 0.671573 5.82843 0 5 0C4.17157 0 3.5 0.671573 3.5 1.5H5H6.5ZM3.5 106.5V108H6.5V106.5H5H3.5ZM5 1.5H3.5L3.5 106.5H5H6.5L6.5 1.5H5Z" fill="#6871F2"/>
<path d="M5 126.5L5 231.5" stroke="#6871F2" stroke-width="3" stroke-linecap="square"/>
<path d="M6.5 251.5V250H3.5V251.5H5H6.5ZM3.5 356.5C3.5 357.328 4.17157 358 5 358C5.82843 358 6.5 357.328 6.5 356.5H5H3.5ZM5 251.5H3.5L3.5 356.5H5H6.5L6.5 251.5H5Z" fill="#6871F2"/>
</svg>
